# xmcd
#
# Track frame offsets:
#	150
#	18677
#	39155
#	61359
#	82365
#	101041
#	123544
#	141171
#	160334
#	177964
#	196716
#	211042
#	233168
#	237369
#	257271
#	274676
#	298382
#	300335
#
# Disc length: 4051 seconds
#
# Revision: 0
# Processed by: cddbd v1.5.2PL0 Copyright (c) Steve Scherf et al.
# Submitted via: audiograbber 1.83.01
#
DISCID=fe0fd112
DTITLE=Brad Paisley - 5th Gear
DYEAR=2007
DGENRE=Country
TTITLE0=All I Wanted Was A Car
TTITLE1=Ticks
TTITLE2=Online
TTITLE3=Letter To Me
TTITLE4=I'm Still A Guy
TTITLE5=Some Mistakes
TTITLE6=It Did
TTITLE7=Mr. Policeman
TTITLE8=If Love Was A Plane
TTITLE9=Oh Love - (with Carrie Underwood)
TTITLE10=Better Than This
TTITLE11=With You, Without You
TTITLE12=Previously - (with Kung Pao Buckaroos/Little Jimmy Dickens/Whisperin' 
TTITLE12=Bill Anderson/Vince Gill)
TTITLE13=Bigger Fish To Fry - (with Kung Pao Buckaroos/Little Jimmy Dickens/Whi
TTITLE13=sperin' Bill Anderson/Vince GiWhen We All Get To Heaven
TTITLE14=When We All Get To Heaven
TTITLE15=Throttleneck
TTITLE16=Outtake # 1 - (Hidden Track)
TTITLE17=Outtake # 2 - (Hidden Track)
EXTD=
EXTT0=
EXTT1=
EXTT2=
EXTT3=
EXTT4=
EXTT5=
EXTT6=
EXTT7=
EXTT8=
EXTT9=
EXTT10=
EXTT11=
EXTT12=
EXTT13=
EXTT14=
EXTT15=
EXTT16=
EXTT17=
PLAYORDER=
